# xmcd
#
# Track frame offsets: 
#        150
#        13022
#        28202
#        42322
#        57992
#        73802
#        85630
#        98580
#        120125
#        141875
#        151622
#        163727
#        175690
#        186030
#        197990
#        217315
#        231402
#        251592
#
# Disc length: 3628 seconds
#
# Revision: 1
# Processed by: cddbd v1.5.1PL0 Copyright (c) Steve Scherf et al.
# Submitted via: ExactAudioCopy v0.95a4
#
DISCID=f60e2a12
DTITLE=B. B. King - Let The Good Times Roll
DYEAR=1999
DGENRE=Blues
TTITLE0=Ain't Nobody Here But Us Chickens
TTITLE1=Is You Is, Or Is You Ain't (My Baby)
TTITLE2=Beware, Brother, Beware
TTITLE3=Somebody Done Changed The Lock On My Door
TTITLE4=Ain't That Just Like A Women
TTITLE5=Choo Choo Ch'Boogie
TTITLE6=Buzz Me
TTITLE7=Early In The Mornin'
TTITLE8=I'm Gonna Move To The Outskirts Of Town
TTITLE9=Jack, You're Dead!
TTITLE10=Knock Me A Kiss
TTITLE11=Let The Good Times Roll
TTITLE12=Caldonia
TTITLE13=It's A Great, Great Pleasure
TTITLE14=Rusty Dusty Blues (Mama Mama Blues)
TTITLE15=Sure Had A Wonderful Time Last Night
TTITLE16=Satruday Night Fish Fry
TTITLE17=Nobody Knows You When You're Down And Out
EXTD=The Music Of Louis Jordan\nMCA Records 1999
EXTT0=
EXTT1=
EXTT2=
EXTT3=
EXTT4=
EXTT5=
EXTT6=
EXTT7=
EXTT8=
EXTT9=
EXTT10=
EXTT11=
EXTT12=
EXTT13=
EXTT14=
EXTT15=
EXTT16=
EXTT17=
PLAYORDER=
